<svg xmlns="http://www.w3.org/2000/svg" width="126" height="107" fill="none"><path fill="#fff" d="m60.749 75.388-.235-.132-12.407 7.156 1.367.785-.041.02c.948.541 1.937 1.122 2.773 1.601l11.07-6.392 1.367-.795-1.438-.836h.02l-2.456-1.437c-.01 0-.02.01-.02.01zM64.64 79.21c-.152.091-12.395 7.156-12.406 7.156l.072.04.122.072 2.783 1.61.092-.05c.122-.072.367-.214.703-.408l.897-.52c.153-.092.316-.183.49-.285l.958-.55c.235-.133.469-.266.714-.409l.346-.204q.184-.105.367-.214l2.63-1.519c.296-.173.592-.346.877-.51l3.191-1.844.448-.266c.143-.081.276-.163.378-.214l.214-.122.091-.05-2.966-1.724z"></path><path d="M64.854 33.02v1.896c.53.439 1.397 1.163 1.927 1.601V34.52c.132-.071.316-.183.53-.306.295-.173.662-.377 1.09-.632.174-.102.368-.204.561-.326.632-.367 1.356-.775 2.162-1.244.785-.459 1.661-.958 2.579-1.478.265-.153.54-.306.815-.469q.566-.32 1.162-.673c.561-.326 1.142-.652 1.723-.989a241 241 0 0 0 2.019-1.162c.785-.448 1.57-.897 2.355-1.356.632-.357 1.254-.724 1.875-1.08.775-.449 1.54-.887 2.284-1.315.01 0 .02-.01.03-.02.51-.296 1.02-.582 1.51-.867.713-.408 1.396-.806 2.059-1.183 1.63-.938 3.078-1.774 4.21-2.426.968-.56 1.712-.989 2.161-1.244h.02v28.32l1.927-1.111v-30.95l-26.25 15.118-6.76 3.894zM18.043 57.17l-6.555-3.772v18.493l6.555 3.772zM25.944 80.159V61.666a2744 2744 0 0 0-7.36-4.23v18.492zM67.563 82.482v.02L55.156 89.67 86.646 107c.031-.01 12.407-7.156 12.428-7.177l-31.501-17.34z" class="fillShade100"></path><path d="m4.596 70.8 31.939 18.462c3.232-1.856 8.37-4.792 11.53-6.606v-.235l.836-.49V63.267c3.13-1.804 7.83-4.516 10.867-6.27v18.666l.734-.428h.02l.235.133c3.344-1.917 6.86-3.935 10.215-5.862V41.012L55.558 28.758C49.716 39.615 42.662 52.745 36.81 63.623c-8.44-4.629-29.196-16.76-34.681-19.87v25.63l.132.081L4.565 70.8zM66.76 37.77c1.02.815 1.988 1.6 2.916 2.355-1.397-1.091-2.528-2.05-3.782-3.048.255.203.55.438.866.693M61.44 56.782c2.304-1.325 5.484-3.15 7.778-4.465v14.17l-7.778 4.466zM38.258 69.291l7.778-4.465v14.17l-7.778 4.465zm-12.305-7.626v18.493l-7.36-4.23V57.434c2.182 1.254 5.158 2.966 7.36 4.23m-14.455-8.267 6.555 3.772v18.492l-6.555-3.772z" class="fillShade100"></path><path d="M19.393 53.694c2.957 1.702 5.108 2.936 5.148 2.966.602.347 2.386 1.377 4.415 2.539a486 486 0 0 0 7.89 4.435c5.852-10.878 12.906-24.008 18.748-34.865l15.413 12.253v.163l2.151 1.244.225-.469-6.576-5.444c-.53-.438-1.396-1.162-1.926-1.6V33.02l6.759-3.895 26.25-15.118L73.7 0l-2.06 1.193L40.976 18.88l-.03-.02c-.877-.51-13.794-7.942-15.088-8.686C23.48 13.151 1.686 40.411.014 42.501l2.15 1.243c1.142.642 2.478 1.407 3.956 2.253 3.803 2.182 8.543 4.944 13.284 7.687zM46.018 64.826l-7.768 4.476v14.16l7.768-4.466z" class="fillShade400"></path><path d="M95.918 17.748c-9.389 5.403-19.665 11.326-29.125 16.77v1.998l6.575 5.444-.224.469-2.15-1.244v18.207L94.908 45.58l-.02-27.23 1.03-.59zM29.553 59.557C23.406 56.04 4.617 45.183 2.15 43.766v25.628l.133.082 2.304 1.335 31.939 18.462V63.493c-.958-.55-4.119-2.274-6.983-3.925zm-11.52 16.107-6.555-3.772V53.399l6.555 3.772zm7.9 4.496-7.36-4.231V57.436c2.182 1.254 5.159 2.967 7.36 4.231zM69.212 60.413v-8.095c-2.284 1.315-5.475 3.14-7.778 4.465v14.17l7.778-4.464v-6.076" class="fillShade400"></path><path d="M59.015 75.245v-17.81c-.295.174-.724.418-1.233.714-1.57.907-3.528 2.039-5.301 3.059-1.51.866-2.855 1.651-3.579 2.069v17.81z" class="fillShade600"></path><path d="m48.105 82.412 12.406-7.156-.734.418V57.008l-.754.438v17.81L48.91 81.097v.8559999999999999l-.836.49c.428.245.897.52 1.377.795l.04-.02-1.366-.785zM47.751 82.828l-.948.54a6 6 0 0 0-.337.194l-.438.255c-.132.081-.275.153-.418.234l-.438.255c-.377.214-.765.439-1.173.673l-.183.102c-.255.143-.51.296-.765.438l-.255.153c-3.007 1.723-6.198 3.548-6.259 3.589v2.823l11.53-6.605v-2.835s-.112.062-.306.174zM70.84 69.608c-.264.153-.794.459-1.498.856l-.51.296c-.122.072-.244.143-.377.214l-.58.326c-.072.041-.144.082-.205.123l-1.223.703c-.082.051-.163.092-.245.143l-.51.296q-.183.106-.366.214L63.379 73.9c-.847.48-1.56.897-2.03 1.162l-.427.245c-.062.04-.112.061-.133.071l2.457 1.417 7.788-4.465v-2.834s-.03.02-.081.04l-.102.062z" class="fillShade600"></path><path d="m63.277 78.426-11.071 6.391c-.836-.479-1.825-1.05-2.773-1.6l-1.326.764 4.13 2.386s12.243-7.075 12.406-7.156v-.02l-1.336-.776 1.336-.774zM36.536 89.282 4.597 70.82l-2.304-1.336h-.02l-.123.062v2.67l34.376 19.88v-2.814zM64.857 33.02c4.363-2.518 28.126-16.2 33.01-19.013L73.674 0l-2.06 1.193L40.952 18.88c-.928-.54-13.783-7.941-15.108-8.706C23.468 13.151 1.672 40.411 0 42.501c10.888 6.167 25.608 14.945 36.832 21.122C42.684 52.746 49.74 39.616 55.58 28.758c5.26 3.956 11.723 10.073 17.575 13.66l.224-.468c-1.305-1.08-7.554-6.25-8.502-7.044V33.01z" class="fillShade600"></path><path d="m67.612 80.934-.092.05q-.077.047-.214.123l-.378.214c-.132.082-.285.163-.448.265l-3.191 1.845-.877.51c-.876.5-1.773 1.02-2.63 1.519l-.367.214c-.112.071-.234.132-.346.204l-.714.408c-.336.193-.663.377-.958.55l-.49.286c-.346.193-.642.377-.897.52l-.703.407c-.051.03-.092.051-.092.051l-.04.02-2.967-1.722.03-.02-4.128-2.386 1.325-.765c-.48-.275-.948-.55-1.376-.795v3.15l7.105 4.109 12.437-7.187v-1.57z" class="fillShade600"></path><path d="m67.612 80.934-.092.05q-.077.047-.214.123l-.378.214c-.132.082-.285.163-.448.265l-3.191 1.845-.877.51c-.876.5-1.773 1.02-2.63 1.519l-.367.214c-.112.071-.234.132-.346.204l-.714.408c-.336.193-.663.377-.958.55l-.49.286c-.346.193-.642.377-.897.52l-.703.407c-.051.03-.092.051-.092.051l-.04.02-2.967-1.722.03-.02-4.128-2.386 1.325-.765c-.48-.275-.948-.55-1.376-.795v3.15l7.105 4.109 12.437-7.187v-1.57zM64.65 79.19v-1.55l-1.345.775zM95.938 45.671v-.683l-1.03.592 1.03.489zM95.914 17.748l-1.03.601.021 27.23 1.03-.602z" class="fillShade600"></path><path d="M64.65 79.19v-1.55l-1.345.775zM133.563 76.841l5.097-5.107a.582.582 0 0 0-.153-1.01l-16.627-6.126-42.51 24.976c-.55.326-.52 1.131.051 1.407l14.802 8.206 2.977-1.183c.56.174 1.223.276 1.937.276 1.978 0 3.578-.765 3.578-1.703 0-.479-.428-.917-1.111-1.223l24.935-15.026c.652.356 1.611.59 2.681.59 1.978 0 3.578-.764 3.578-1.702 0-.652 1.906-2.08.765-2.365z" class="fillShade600"></path><path d="m139.479 66.095-.071-12.63-1.121-4.629-.337-.091-16.035-9.563-.734-.204-26.526 15.506s-.02.01-.03.02l-.398.306c-3.12 2.804-9.674 16.576-11.642 19.124-.948 1.316-3.812 3.62-3.537 6.392-1.6 1.927-2.487 5.526-1.203 7.738.143.255 16.25 9.695 16.454 9.878l2.854-1.183.316-.326c.143.143.296.265.48.367l1.406.846a3 3 0 0 1-.265-.193c.285.214.642.356 1.091.407 1.947.235 3.975-3.13 4.159-5.729l.591.225.051-.072-.061.04s0-.08.01-.111c.51-.306 20.633-12.315 22.662-13.528.183.296.438.55.754.724l1.407.846a3 3 0 0 1-.265-.194c.286.214.642.357 1.091.408 2.12.255 4.353-3.782 4.159-6.432l.5.193.846-.958 3.537-3.548.235-3.099z" class="fillShade600" clip-rule="evenodd"></path><path d="M139.483 66.095v-.03.132l-1.05.591c-.041-4.495-.357-4.403 1.009-7.074v.102l-.04-6.352-1.112-4.587v-.04l-.346-.092-16.036-9.563-.734-.204-26.525 15.506s-.02.01-.03.02l-.398.306c-2.243 2.019-6.26 9.695-9.063 14.802-.082-.153-.204-.244-.347-.336l-1.355-.52-.204.143c.071 2.273-.051 3.068.387 3.425-.418.713-.775 1.264-1.04 1.61-.948 1.316-3.812 3.62-3.537 6.392-.47.571-.877 1.285-1.193 2.07l15.23 9.083.48.285.621.377c-.234.897-.795 2.794-.173 5.057.061.204.122.418.204.622l.071.122c.143-.051.286-.102.428-.163h.02c.959-.367 1.754-.744 2.407-1.01.05-2.15.102-3.618.489-4.8a4.8 4.8 0 0 1 1.142-1.887c1.988-1.63 3.955-3.099 5.107-2.273.693.49 1.091 1.927 1.03 4.526l22.845-13.742c.112-1.243.265-2.508.663-3.64.407-1.14 1.06-2.16 2.191-2.904 1.672-1.06 2.926-1.693 3.701-1.132.55.398.856 1.488.927 3.323l.602-.683.245-.275 3.537-3.547.234-3.1-.377-.53zM89.817 86.76l-7.544-4.353.316-.398 7.544 4.353zm.673-.867-7.544-4.353.316-.397 7.544 4.353zm.662-.805-7.543-4.353.316-.397 7.543 4.352zm12.59-4.465-.968-.306-.255.143c.041 1.142.03 1.916.071 2.447-.673.377-1.203.621-1.447.621-.184-.214-.143-.632.04-1.203.418-1.254 1.56-3.21 2.559-5.148v3.456zm-4.139-.398-14.23-8.502c1.375-2.405 3.292-5.933 5.117-9.134l14.231 8.472c-1.835 3.231-3.721 6.687-5.128 9.164zm9.542-2.11a3.4 3.4 0 0 1-.245.398c-.234.326-2.1 1.702-3.955 2.925-.102-.305-.265-.54-.53-.611l-.316-.102v-4.22c1.814-3.426 3.15-5.312 6.198-6.25.224.46 0 5.628-1.162 7.85z" class="fillShade100"></path><path d="m139.402 53.465-1.112-4.588v-.04l-.346-.092-16.036-9.563-.734-.204-26.525 15.506s-.02.01-.03.02l-.398.306c-2.243 2.019-6.26 9.695-9.063 14.802-.082-.153-.204-.244-.347-.336l-1.355-.52-.204.143c.071 2.273-.051 3.068.387 3.425-.418.713-.775 1.264-1.04 1.61-.948 1.316-3.812 3.62-3.537 6.392-.47.571-.877 1.285-1.193 2.07l15.23 9.083 1.122.652 1.376-2.885c5.617-9.042 10.367-17.676 14.15-23.212a7.2 7.2 0 0 1 2.538-2.487l25.567-14.874.102.061.336.092v.04l1.112 4.588zM89.807 86.759l-7.544-4.353.316-.398 7.544 4.353zm.672-.867-7.543-4.353.316-.397 7.543 4.353zm.663-.805-7.544-4.353.316-.397 7.544 4.352zm8.451-4.863-14.231-8.502c1.376-2.405 3.293-5.933 5.117-9.134l14.232 8.472c-1.835 3.231-3.721 6.687-5.128 9.164z" class="fillShade300"></path><path d="m116.373 77.426-3.23 1.865v-.446l3.23-1.865zM113.142 79.29l-.367-.214v-.446l.367.215z" class="fillShade600"></path><path d="m116.373 76.98-3.231 1.863-.367-.212 3.231-1.868zM111.307 80.568l-3.231 1.864v-.446l3.231-1.863zM108.076 82.433l-.367-.213v-.445l.367.213z" class="fillShade600"></path><path d="m111.306 80.124-3.23 1.862-.367-.21 3.231-1.868z" class="fillShade600"></path><path fill="#fff" fill-rule="evenodd" d="M102.147 90.723c-2.08-.255-4.323 5.586-1.509 5.872 2.08.255 4.322-5.587 1.509-5.872m-.53 3.578c-.184.235-.388.357-.581.357h-.072a.51.51 0 0 1-.448-.316c-.174-.398.03-1.05.316-1.427.193-.265.428-.388.642-.357.214.02.367.132.448.316.174.398-.03 1.05-.316 1.427z" clip-rule="evenodd"></path><path fill="#fff" fill-rule="evenodd" d="M101.473 92.781h-.03c-.122 0-.265.102-.408.275-.275.368-.418.928-.296 1.203q.077.168.276.184c.142.02.295-.082.448-.275.275-.367.418-.928.296-1.203q-.077-.169-.275-.184z" clip-rule="evenodd"></path><path fill="#fff" fill-rule="evenodd" d="M102.208 90.731c-1.111-.03-2.314 1.295-2.742 2.936-.265 1.264-.234 2.65.877 2.722 1.906.183 4.006-4.73 1.855-5.648zm-.581 3.568c-.183.234-.387.357-.581.357h-.071a.51.51 0 0 1-.449-.316c-.173-.398.031-1.05.316-1.428.194-.265.428-.387.643-.356.214.02.367.132.448.316.173.397-.031 1.05-.316 1.427zM81.452 75.27c-1.172 1.315-2.6 3.068-2.395 5.066-.031.04-.062.071-.092.112.367.286.826.643 1.407 1.122 2.68-2.946 3.068-2.783 1.08-6.3M100.168 83.577l.01-.01c-6.473.723-5.83.305-6.8 4.903 1.785.479 2.58.744 3.161.866 1.03-.51 1.111-.58 1.998-1.865 1.56-2.253 1.876-2.488 1.631-3.874z" clip-rule="evenodd"></path><path fill="#fff" fill-rule="evenodd" d="M101.475 92.781h-.03c-.123 0-.265.102-.408.275-.275.368-.418.928-.296 1.203q.076.168.276.184c.142.02.295-.082.448-.275.275-.367.418-.928.296-1.203q-.077-.169-.275-.184z" clip-rule="evenodd"></path></svg>