<svg xmlns="http://www.w3.org/2000/svg" width="123" height="120" fill="none"><path fill="#EEE" d="M61.5 120c33.137 0 60-26.863 60-60S94.637 0 61.5 0s-60 26.863-60 60 26.863 60 60 60"></path><path d="M3.35 43.304a2.913 2.913 0 0 0-2.912 2.912v48.93a3.043 3.043 0 0 0 3.042 3.042h68.174V43.304z" class="fillShade200"></path><path d="m115.567 73.839-4.213-2.374-15.155-22.172a13.75 13.75 0 0 0-11.353-5.99H71.653v54.885h48.387a2.52 2.52 0 0 0 2.522-2.523v-9.849a13.74 13.74 0 0 0-6.995-11.977" class="fillShade500"></path><path fill="#141414" d="M102.337 109.419c6.332 0 11.465-5.133 11.465-11.465s-5.133-11.465-11.465-11.465-11.465 5.133-11.465 11.465 5.133 11.465 11.465 11.465M20.663 109.419c6.332 0 11.465-5.133 11.465-11.465S26.995 86.49 20.663 86.49 9.198 91.622 9.198 97.954s5.133 11.465 11.465 11.465"></path><path fill="#fff" d="M102.337 104.237a6.28 6.28 0 0 0 6.282-6.283 6.282 6.282 0 1 0-12.564 0 6.283 6.283 0 0 0 6.282 6.283M20.663 104.237a6.283 6.283 0 1 0 0-12.565 6.283 6.283 0 0 0 0 12.565M76.91 50.43v21.035h26.058a1.573 1.573 0 0 0 1.282-2.478L93.558 53.903a8.23 8.23 0 0 0-6.72-3.473zM83.64 76.165h-6.733v2.263h6.732z"></path><path d="M37.948 15.701c-10.836 0-19.626 8.79-19.626 19.626 0 14.72 19.626 36.449 19.626 36.449s19.627-21.729 19.627-36.449c0-10.836-8.79-19.626-19.627-19.626m0 26.636c-3.869 0-7.009-3.14-7.009-7.01s3.14-7.009 7.01-7.009 7.009 3.14 7.009 7.01c0 3.868-3.14 7.009-7.01 7.009" class="fillShade500"></path></svg>