<svg xmlns="http://www.w3.org/2000/svg" width="126" height="107" fill="none">
  <style>
    .house-light { fill: rgba(255, 255, 255, 0.8); }
    .house-medium { fill: rgba(255, 255, 255, 0.6); }
    .house-dark { fill: rgba(255, 255, 255, 0.4); }
    .house-accent { fill: rgba(255, 255, 255, 0.9); }
  </style>
  <path class="house-light" d="m60.749 75.388-.235-.132-12.407 7.156 1.367.785-.041.02c.948.541 1.937 1.122 2.773 1.601l11.07-6.392 1.367-.795-1.438-.836h.02l-2.456-1.437c-.01 0-.02.01-.02.01zM64.64 79.21c-.152.091-12.395 7.156-12.406 7.156l.072.04.122.072 2.783 1.61.092-.05c.122-.072.367-.214.703-.408l.897-.52c.153-.092.316-.183.49-.285l.958-.55c.235-.133.469-.266.714-.409l.346-.204q.184-.105.367-.214l2.63-1.519c.296-.173.592-.346.877-.51l3.191-1.844.448-.266c.143-.081.276-.163.378-.214l.214-.122.091-.05-2.966-1.724z"/>
  <path class="house-medium" d="M64.854 33.02v1.896c.53.439 1.397 1.163 1.927 1.601V34.52c.132-.071.316-.183.53-.306.295-.173.662-.377 1.09-.632.174-.102.368-.204.561-.326.632-.367 1.356-.775 2.162-1.244.785-.459 1.661-.958 2.579-1.478.265-.153.54-.306.815-.469q.566-.32 1.162-.673c.561-.326 1.142-.652 1.723-.989a241 241 0 0 0 2.019-1.162c.785-.448 1.57-.897 2.355-1.356.632-.357 1.254-.724 1.875-1.08.775-.449 1.54-.887 2.284-1.315.01 0 .02-.01.03-.02.51-.296 1.02-.582 1.51-.867.713-.408 1.396-.806 2.059-1.183 1.63-.938 3.078-1.774 4.21-2.426.968-.56 1.712-.989 2.161-1.244h.02v28.32l1.927-1.111v-30.95l-26.25 15.118-6.76 3.894zM18.043 57.17l-6.555-3.772v18.493l6.555 3.772zM25.944 80.159V61.666a2744 2744 0 0 0-7.36-4.23v18.492zM67.563 82.482v.02L55.156 89.67 86.646 107c.031-.01 12.407-7.156 12.428-7.177l-31.501-17.34z"/>
  <path class="house-medium" d="m4.596 70.8 31.939 18.462c3.232-1.856 8.37-4.792 11.53-6.606v-.235l.836-.49V63.267c3.13-1.804 7.83-4.516 10.867-6.27v18.666l.734-.428h.02l.235.133c3.344-1.917 6.86-3.935 10.215-5.862V41.012L55.558 28.758C49.716 39.615 42.662 52.745 36.81 63.623c-8.44-4.629-29.196-16.76-34.681-19.87v25.63l.132.081L4.565 70.8zM66.76 37.77c1.02.815 1.988 1.6 2.916 2.355-1.397-1.091-2.528-2.05-3.782-3.048.255.203.55.438.866.693M61.44 56.782c2.304-1.325 5.484-3.15 7.778-4.465v14.17l-7.778 4.466zM38.258 69.291l7.778-4.465v14.17l-7.778 4.465zm-12.305-7.626v18.493l-7.36-4.23V57.434c2.182 1.254 5.158 2.966 7.36 4.23m-14.455-8.267 6.555 3.772v18.492l-6.555-3.772z"/>
  <path class="house-dark" d="M19.393 53.694c2.957 1.702 5.108 2.936 5.148 2.966.602.347 2.386 1.377 4.415 2.539a486 486 0 0 0 7.89 4.435c5.852-10.878 12.906-24.008 18.748-34.865l15.413 12.253v.163l2.151 1.244.225-.469-6.576-5.444c-.53-.438-1.396-1.162-1.926-1.6V33.02l6.759-3.895 26.25-15.118L73.7 0l-2.06 1.193L40.976 18.88l-.03-.02c-.877-.51-13.794-7.942-15.088-8.686C23.48 13.151 1.686 40.411.014 42.501l2.15 1.243c1.142.642 2.478 1.407 3.956 2.253 3.803 2.182 8.543 4.944 13.284 7.687zM46.018 64.826l-7.768 4.476v14.16l7.768-4.466z"/>
  <path class="house-dark" d="M95.918 17.748c-9.389 5.403-19.665 11.326-29.125 16.77v1.998l6.575 5.444-.224.469-2.15-1.244v18.207L94.908 45.58l-.02-27.23 1.03-.59zM29.553 59.557C23.406 56.04 4.617 45.183 2.15 43.766v25.628l.133.082 2.304 1.335 31.939 18.462V63.493c-.958-.55-4.119-2.274-6.983-3.925zm-11.52 16.107-6.555-3.772V53.399l6.555 3.772zm7.9 4.496-7.36-4.231V57.436c2.182 1.254 5.159 2.967 7.36 4.231zM69.212 60.413v-8.095c-2.284 1.315-5.475 3.14-7.778 4.465v14.17l7.778-4.464v-6.076"/>
  <path class="house-dark" d="M59.015 75.245v-17.81c-.295.174-.724.418-1.233.714-1.57.907-3.528 2.039-5.301 3.059-1.51.866-2.855 1.651-3.579 2.069v17.81z"/>
  <path class="house-dark" d="m48.105 82.412 12.406-7.156-.734.418V57.008l-.754.438v17.81L48.91 81.097v.8559999999999999l-.836.49c.428.245.897.52 1.377.795l.04-.02-1.366-.785zM47.751 82.828l-.948.54a6 6 0 0 0-.337.194l-.438.255c-.132.081-.275.153-.418.234l-.438.255c-.377.214-.765.439-1.173.673l-.183.102c-.255.143-.51.296-.765.438l-.255.153c-3.007 1.723-6.198 3.548-6.259 3.589v2.823l11.53-6.605v-2.835s-.112.062-.306.174zM70.84 69.608c-.264.153-.794.459-1.498.856l-.51.296c-.122.072-.244.143-.377.214l-.58.326c-.072.041-.144.082-.205.123l-1.223.703c-.082.051-.163.092-.245.143l-.51.296q-.183.106-.366.214L63.379 73.9c-.847.48-1.56.897-2.03 1.162l-.427.245c-.062.04-.112.061-.133.071l2.457 1.417 7.788-4.465v-2.834s-.03.02-.081.04l-.102.062z"/>
  <path class="house-dark" d="m63.277 78.426-11.071 6.391c-.836-.479-1.825-1.05-2.773-1.6l-1.326.764 4.13 2.386s12.243-7.075 12.406-7.156v-.02l-1.336-.776 1.336-.774zM36.536 89.282 4.597 70.82l-2.304-1.336h-.02l-.123.062v2.67l34.376 19.88v-2.814zM64.857 33.02c4.363-2.518 28.126-16.2 33.01-19.013L73.674 0l-2.06 1.193L40.952 18.88c-.928-.54-13.783-7.941-15.108-8.706C23.468 13.151 1.672 40.411 0 42.501c10.888 6.167 25.608 14.945 36.832 21.122C42.684 52.746 49.74 39.616 55.58 28.758c5.26 3.956 11.723 10.073 17.575 13.66l.224-.468c-1.305-1.08-7.554-6.25-8.502-7.044V33.01z"/>
</svg>